<?xml version="1.0" encoding="utf-8"?>
<!-- Generator: Adobe Illustrator 21.1.0, SVG Export Plug-In . SVG Version: 6.00 Build 0)  -->
<svg version="1.1" id="Capa_1" xmlns="http://www.w3.org/2000/svg" xmlns:xlink="http://www.w3.org/1999/xlink" x="0px" y="0px"
	 viewBox="0 0 95 24" style="enable-background:new 0 0 95 24;" xml:space="preserve">
<style type="text/css">
	.st0{fill:#858181;}
	.st1{fill:#DA332D;}
</style>
<g>
	<g>
		<path class="st0" d="M79.6,9.6V1.9h0.9v0.7c0.2-0.3,0.4-0.5,0.7-0.6c0.3-0.1,0.6-0.2,0.9-0.2c0.5,0,0.9,0.1,1.3,0.4
			c0.4,0.2,0.6,0.6,0.8,1c0.2,0.4,0.3,0.9,0.3,1.5c0,0.6-0.1,1.1-0.3,1.6c-0.2,0.5-0.5,0.8-0.9,1.1S82.4,7.6,82,7.6
			c-0.3,0-0.6-0.1-0.9-0.2c-0.3-0.1-0.5-0.3-0.6-0.5v2.7H79.6z M80.4,4.7c0,0.7,0.1,1.3,0.4,1.6c0.3,0.3,0.6,0.5,1.1,0.5
			c0.4,0,0.8-0.2,1.1-0.5c0.3-0.4,0.5-0.9,0.5-1.7c0-0.7-0.1-1.3-0.4-1.6c-0.3-0.4-0.6-0.5-1.1-0.5c-0.4,0-0.8,0.2-1.1,0.6
			C80.6,3.4,80.4,4,80.4,4.7z"/>
		<path class="st0" d="M86,7.5V1.9h0.9v0.9c0.2-0.4,0.4-0.7,0.6-0.8c0.2-0.1,0.4-0.2,0.6-0.2c0.3,0,0.6,0.1,1,0.3l-0.3,0.9
			c-0.2-0.1-0.5-0.2-0.7-0.2c-0.2,0-0.4,0.1-0.6,0.2c-0.2,0.1-0.3,0.3-0.4,0.5C87,3.8,87,4.1,87,4.5v2.9H86z"/>
		<path class="st0" d="M89.7,4.7c0-1,0.3-1.8,0.9-2.3c0.5-0.4,1.1-0.6,1.8-0.6c0.8,0,1.4,0.3,1.9,0.8C94.8,3,95,3.7,95,4.6
			c0,0.7-0.1,1.3-0.3,1.7c-0.2,0.4-0.5,0.7-0.9,1c-0.4,0.2-0.9,0.3-1.4,0.3c-0.8,0-1.4-0.3-1.9-0.8C90,6.4,89.7,5.6,89.7,4.7z
			 M90.7,4.7c0,0.7,0.2,1.3,0.5,1.6c0.3,0.4,0.7,0.5,1.2,0.5c0.5,0,0.9-0.2,1.2-0.5C93.9,5.9,94,5.4,94,4.6c0-0.7-0.2-1.2-0.5-1.6
			c-0.3-0.4-0.7-0.5-1.2-0.5c-0.5,0-0.9,0.2-1.2,0.5C90.9,3.4,90.7,4,90.7,4.7z"/>
	</g>
</g>
<g>
	<g>
		<path class="st1" d="M55.3,13.6v2h-1.7v3.7c0,0.8,0,1.2,0,1.3c0,0.1,0.1,0.2,0.2,0.3c0.1,0.1,0.3,0.1,0.4,0.1c0.2,0,0.6-0.1,1-0.2
			l0.2,1.9c-0.6,0.2-1.2,0.4-1.9,0.4c-0.4,0-0.8-0.1-1.2-0.2c-0.4-0.1-0.6-0.3-0.8-0.6c-0.2-0.2-0.3-0.6-0.3-1
			c-0.1-0.3-0.1-0.9-0.1-1.7v-4h-1.1v-2h1.1v-1.8l2.5-1.4v3.3H55.3z"/>
		<path class="st1" d="M55.4,18.1c0-0.8,0.2-1.6,0.6-2.4c0.4-0.8,1-1.3,1.7-1.7c0.7-0.4,1.6-0.6,2.5-0.6c1.4,0,2.6,0.5,3.4,1.4
			c0.9,0.9,1.3,2.1,1.3,3.5c0,1.4-0.5,2.6-1.4,3.5c-0.9,0.9-2,1.4-3.4,1.4c-0.9,0-1.7-0.2-2.4-0.6c-0.8-0.4-1.4-0.9-1.8-1.7
			C55.6,20.1,55.4,19.2,55.4,18.1z M57.9,18.3c0,0.9,0.2,1.6,0.7,2.1c0.4,0.5,1,0.7,1.6,0.7c0.6,0,1.2-0.2,1.6-0.7
			c0.4-0.5,0.7-1.2,0.7-2.1c0-0.9-0.2-1.6-0.7-2.1c-0.4-0.5-1-0.7-1.6-0.7c-0.6,0-1.2,0.2-1.6,0.7C58.1,16.7,57.9,17.4,57.9,18.3z"
			/>
		<path class="st1" d="M71.9,22.9v-1.4c-0.3,0.5-0.8,0.9-1.3,1.2s-1.1,0.4-1.7,0.4c-0.6,0-1.2-0.1-1.7-0.4c-0.5-0.3-0.9-0.7-1.1-1.2
			c-0.2-0.5-0.3-1.2-0.3-2.1v-5.9h2.5v4.3c0,1.3,0,2.1,0.1,2.4c0.1,0.3,0.3,0.5,0.5,0.7c0.2,0.2,0.5,0.3,0.9,0.3
			c0.4,0,0.8-0.1,1.1-0.3c0.3-0.2,0.6-0.5,0.7-0.9c0.1-0.3,0.2-1.2,0.2-2.5v-3.9h2.5v9.3H71.9z"/>
		<path class="st1" d="M83.8,16.4l-2.4,0.4c-0.1-0.5-0.3-0.8-0.6-1.1s-0.7-0.4-1.1-0.4c-0.6,0-1.1,0.2-1.5,0.6
			c-0.4,0.4-0.5,1.1-0.5,2.1c0,1.1,0.2,1.9,0.6,2.3c0.4,0.5,0.9,0.7,1.5,0.7c0.5,0,0.8-0.1,1.1-0.4c0.3-0.3,0.5-0.7,0.6-1.4l2.4,0.4
			c-0.3,1.1-0.7,1.9-1.4,2.5c-0.7,0.6-1.7,0.8-2.9,0.8c-1.4,0-2.4-0.4-3.2-1.3c-0.8-0.9-1.2-2-1.2-3.6c0-1.5,0.4-2.7,1.2-3.6
			c0.8-0.9,1.9-1.3,3.3-1.3c1.1,0,2,0.2,2.7,0.7C83,14.6,83.5,15.4,83.8,16.4z"/>
		<path class="st1" d="M87,10.1v4.7c0.8-0.9,1.7-1.4,2.8-1.4c0.6,0,1.1,0.1,1.5,0.3c0.5,0.2,0.8,0.5,1,0.8c0.2,0.3,0.4,0.7,0.5,1.1
			c0.1,0.4,0.1,1,0.1,1.8v5.4h-2.5V18c0-1,0-1.6-0.1-1.9c-0.1-0.3-0.3-0.5-0.5-0.6c-0.2-0.2-0.5-0.2-0.9-0.2c-0.4,0-0.8,0.1-1.1,0.3
			c-0.3,0.2-0.6,0.5-0.7,0.9c-0.1,0.4-0.2,1-0.2,1.8v4.6h-2.5V10.1H87z"/>
	</g>
</g>
<g>
	<path d="M27.8,20l2.4,0.4c-0.3,0.9-0.8,1.6-1.5,2c-0.7,0.5-1.5,0.7-2.5,0.7c-1.6,0-2.8-0.5-3.6-1.6c-0.6-0.8-0.9-1.9-0.9-3.2
		c0-1.5,0.4-2.7,1.2-3.6c0.8-0.9,1.8-1.3,3-1.3c1.4,0,2.5,0.5,3.3,1.4c0.8,0.9,1.2,2.3,1.1,4.2h-6.1c0,0.7,0.2,1.3,0.6,1.7
		c0.4,0.4,0.8,0.6,1.4,0.6c0.4,0,0.7-0.1,1-0.3C27.5,20.8,27.7,20.4,27.8,20z M28,17.5c0-0.7-0.2-1.3-0.6-1.6
		c-0.3-0.4-0.8-0.6-1.3-0.6c-0.5,0-1,0.2-1.3,0.6c-0.3,0.4-0.5,0.9-0.5,1.6H28z"/>
	<path d="M30.5,20.3l2.5-0.4c0.1,0.5,0.3,0.8,0.6,1.1c0.3,0.2,0.8,0.4,1.3,0.4c0.6,0,1.1-0.1,1.4-0.3c0.2-0.2,0.3-0.4,0.3-0.7
		c0-0.2-0.1-0.3-0.2-0.5c-0.1-0.1-0.4-0.2-0.8-0.3c-2-0.4-3.2-0.8-3.8-1.2c-0.7-0.5-1.1-1.2-1.1-2.1c0-0.8,0.3-1.5,1-2
		c0.6-0.5,1.6-0.8,3-0.8c1.3,0,2.2,0.2,2.8,0.6c0.6,0.4,1,1,1.3,1.8l-2.3,0.4c-0.1-0.4-0.3-0.6-0.6-0.8c-0.3-0.2-0.7-0.3-1.2-0.3
		c-0.6,0-1.1,0.1-1.4,0.3c-0.2,0.1-0.3,0.3-0.3,0.5c0,0.2,0.1,0.3,0.2,0.4c0.2,0.2,1,0.4,2.3,0.7c1.3,0.3,2.2,0.7,2.7,1.1
		c0.5,0.4,0.8,1,0.8,1.8c0,0.9-0.4,1.6-1.1,2.2c-0.7,0.6-1.8,0.9-3.2,0.9c-1.3,0-2.3-0.3-3-0.8C31.2,21.8,30.7,21.1,30.5,20.3z"/>
	<path d="M44.5,13.6v2h-1.7v3.7c0,0.8,0,1.2,0,1.3c0,0.1,0.1,0.2,0.2,0.3c0.1,0.1,0.3,0.1,0.4,0.1c0.2,0,0.6-0.1,1-0.2l0.2,1.9
		c-0.6,0.2-1.2,0.4-1.9,0.4c-0.4,0-0.8-0.1-1.2-0.2c-0.4-0.1-0.6-0.3-0.8-0.6c-0.2-0.2-0.3-0.6-0.3-1c-0.1-0.3-0.1-0.9-0.1-1.7v-4
		h-1.1v-2h1.1v-1.8l2.5-1.4v3.3H44.5z"/>
	<path d="M44.8,19.5V17h4.8v2.5H44.8z"/>
</g>
<g>
	<path class="st1" d="M6.9,13.7v4.8c0,0.7,0.1,1.1,0.3,1.3c0.2,0.2,0.7,0.3,1.4,0.3c0.3,0,0.7,0,1.2-0.1l0,3.1c0,0-1.8,0-2.3,0
		c-1.6,0-5.1,0.2-6.1-0.6C0.8,22.1,0,20.6,0,19V5.7h6.9v3.7h3.4v4.3L6.9,13.7z"/>
</g>
<g>
	<path d="M19.8,15.1c0.5,0.6,0.6,1.1,0.6,1.4v6.7h-6.6v-7.1c0-1.1-0.4-1.9-0.9-2.1c-0.2-0.1-0.8-0.2-1.6-0.2l0-4.2l-0.2-0.2
		c0.4,0,0.9,0,1.3-0.1c0.5-0.1,0.9-0.3,1.1-0.8c0.2-0.4,0.2-1.1,0.2-1.6c0-0.8-0.2-1.3-0.7-1.7c-0.5-0.4-1.4-0.6-2.7-0.6H7.2L0,4.7
		V0h12c2.2,0,3.9,0.2,5.1,0.6c1.2,0.4,2.1,1.1,2.8,2.1C20.7,3.7,21,5,21,6.5c0,1.3-0.3,2.4-0.8,3.3c-0.6,0.9-1.3,1.7-2.3,2.3
		c-0.6,0.4-1.5,0.7-2.5,0.9c0.9,0.3,2.1,0.6,2.7,0.8C18.5,14.1,19.3,14.5,19.8,15.1z"/>
</g>
</svg>
